<?xml version="1.0" encoding="utf-8"?>
<!-- Generator: Adobe Illustrator 21.0.0, SVG Export Plug-In . SVG Version: 6.00 Build 0)  -->
<svg version="1.1" id="outline" xmlns="http://www.w3.org/2000/svg" xmlns:xlink="http://www.w3.org/1999/xlink" x="0px" y="0px"
	 viewBox="0 0 512 512" style="enable-background:new 0 0 512 512;" xml:space="preserve">
<style type="text/css">
	.st0{fill:#0058A2;}
	.st1{fill:#FFDB01;}
</style>
<path class="st0" d="M24,496h16c0.9,0,1.8-0.1,2.6-0.4l304-104c1.2-0.4,2.2-1,3.1-1.9l16-16c3.1-3.1,3.1-8.2,0-11.3c0,0,0,0,0,0
	l-200-200c-3.1-3.1-8.2-3.1-11.3,0l-16,16c-0.7,0.7-1.3,1.6-1.7,2.6l-120,288c-0.4,1-0.6,2-0.6,3.1v16C16,492.4,19.6,496,24,496
	C24,496,24,496,24,496z M233.8,413.2L182,431L67.7,387.9L81,355.9L233.8,413.2z M87.2,341.2l13.3-31.9l208.6,78.2l-51.5,17.6
	L87.2,341.2z M158.2,439.1l-51.1,17.5l-58.8-22l13.3-31.9L158.2,439.1z M339.7,377l-6.7,2.3l-226.3-84.9l13.3-31.9l197.2,74
	l31.5,31.5L339.7,377z M289.8,309.1l-163.7-61.4l13.3-31.9l91.4,34.3L289.8,309.1z M160,179.3l43.4,43.4L145.6,201l5.2-12.5
	L160,179.3z M32,473.6l10.1-24.3l41.1,15.4L38.7,480H32L32,473.6z"/>
<path class="st1" d="M194.3,154.3c-3.1,3.1-3.1,8.2,0,11.3c0,0,0,0,0,0l24,24c1.5,1.5,3.5,2.3,5.7,2.3c0.1,0,0.2,0,0.3,0
	c2.2-0.1,4.3-1.1,5.8-2.8l35.6-41.6c21.3-24.9,18.4-62.3-6.4-83.7c-5.8-5-12.6-8.8-19.9-11.2l-9.5-3.2c-16-5.4-29.8-15.9-39.2-30
	c-2.5-3.7-7.4-4.7-11.1-2.2l-24,16c-3.7,2.5-4.7,7.4-2.2,11.1c0.1,0.1,0.2,0.2,0.3,0.4l9.9,13.2c10.1,13.4,23.5,24,39,30.6l20.8,8.9
	c7.3,3.1,10.7,11.6,7.5,18.8c-0.7,1.7-1.8,3.2-3,4.5L194.3,154.3z M229.6,82.8l-20.8-8.9c-12.9-5.5-24.1-14.3-32.5-25.5l-4.8-6.4
	l10.6-7.1c11.1,13.8,25.9,24.2,42.8,29.8l9.5,3.2c22.7,7.6,35,32.1,27.4,54.8c-1.8,5.3-4.6,10.2-8.2,14.5l-30,35L211.3,160
	l27.8-27.8c11.9-11.9,11.9-31.1,0-42.9C236.4,86.5,233.2,84.4,229.6,82.8L229.6,82.8z"/>
<path class="st0" d="M298.8,65.9c-2.1,1.8-3.2,4.6-2.7,7.4l8,48c0.7,4.4,4.8,7.3,9.2,6.6c1.3-0.2,2.6-0.8,3.7-1.6l40-32
	c3.5-2.8,4-7.8,1.2-11.2c-1-1.2-2.3-2.1-3.7-2.6l-48-16C303.9,63.5,300.9,64.1,298.8,65.9z M335.5,90.9l-17.9,14.3l-3.6-21.4
	L335.5,90.9z"/>
<path class="st0" d="M262.2,39.8l3.9-15.5l32,8l-3.9,15.5L262.2,39.8z"/>
<path class="st1" d="M339.6,33.2l24-16l8.9,13.3l-24,16L339.6,33.2z"/>
<path class="st1" d="M152.3,89.9l15.5-3.9l8,32l-15.5,3.9L152.3,89.9z"/>
<path class="st1" d="M492.4,321.3c-14.1-9.4-24.6-23.2-30-39.2l-3.2-9.5c-10.4-31.1-44-47.9-75.1-37.5c-7.3,2.4-14,6.2-19.9,11.2
	l-41.6,35.6c-3.4,2.9-3.7,7.9-0.9,11.3c0.1,0.2,0.3,0.3,0.4,0.5l24,24c3.1,3.1,8.2,3.1,11.3,0l33.5-33.5c5.6-5.6,14.7-5.6,20.3,0
	c1.3,1.3,2.3,2.8,3,4.5l8.9,20.8c6.6,15.5,17.2,28.9,30.6,39l13.2,9.9c3.5,2.7,8.5,1.9,11.2-1.6c0.1-0.1,0.2-0.2,0.3-0.4l16-24
	C497.1,328.8,496.1,323.8,492.4,321.3C492.4,321.3,492.4,321.3,492.4,321.3z M470,340.5l-6.4-4.8c-11.2-8.4-20-19.6-25.5-32.5
	l-8.9-20.8c-6.6-15.4-24.4-22.5-39.9-15.9c-3.5,1.5-6.8,3.7-9.5,6.4L352,300.7l-12.2-12.2l35-30c18.2-15.6,45.5-13.5,61.1,4.7
	c3.6,4.3,6.4,9.2,8.2,14.5l3.2,9.5c5.6,16.8,16,31.7,29.8,42.8L470,340.5z"/>
<path class="st0" d="M471.6,213.5l-16-48c-1.4-4.2-5.9-6.5-10.1-5.1c-1.5,0.5-2.8,1.4-3.7,2.6l-32,40c-2.8,3.5-2.2,8.5,1.2,11.2
	c1.1,0.9,2.3,1.4,3.7,1.6l48,8c4.4,0.7,8.5-2.2,9.2-6.6C472.1,216,472,214.7,471.6,213.5z M430.8,202.4l14.3-17.9l7.1,21.4
	L430.8,202.4z"/>
<path class="st1" d="M464.3,241.7l15.5-3.9l8,32l-15.5,3.9L464.3,241.7z"/>
<path class="st0" d="M465.5,163.6l16-24l13.3,8.9l-16,24L465.5,163.6z"/>
<path class="st0" d="M390.2,352l3.9-15.5l32,8l-3.9,15.5L390.2,352z"/>
<path class="st1" d="M495.8,94.1l-8-32c-1.1-4.3-5.4-6.9-9.7-5.8c-0.1,0-0.1,0-0.2,0L416,73.2c-18.9,5.1-33.5,20.4-37.7,39.5
	c-5.4,24-25.3,41.8-49.7,44.5l-0.9,0.1c-17.8,2-34.2,10.6-45.9,24.3l-31.9,37.2c-2.7,3.2-2.5,7.9,0.4,10.9l24,24
	c1.5,1.5,3.5,2.3,5.7,2.3c0.1,0,0.2,0,0.4,0c2.2-0.1,4.3-1.1,5.8-2.9c0,0,11.1-13.3,21.6-25.9c10.5-12.6,25.5-20.5,41.8-22.1
	l0.9-0.1c33.6-3.4,61-28.3,67.5-61.4l0.2-1.2c2.8-14.4,13.9-25.8,28.3-29l43.3-9.6c4.3-1,7-5.2,6.1-9.5
	C495.8,94.2,495.8,94.1,495.8,94.1L495.8,94.1z M443,97.8c-20.6,4.6-36.5,20.9-40.5,41.5l-0.2,1.2c-5,26.2-26.8,46-53.4,48.6
	l-0.9,0.1c-20.5,2-39.3,12-52.5,27.8c-5.8,7-11.8,14.2-16,19.2l-12.6-12.6l27-31.6c9-10.6,21.7-17.3,35.5-18.8l0.9-0.1
	c31.2-3.4,56.7-26.3,63.6-57c2.9-13.4,13.1-24,26.3-27.6l54-14.7l4,16.1L443,97.8z"/>
</svg>
